<svg xmlns="http://www.w3.org/2000/svg" version="1.1" xmlns:xlink="http://www.w3.org/1999/xlink" xmlns:svgjs="http://svgjs.com/svgjs" width="512" height="512" x="0" y="0" viewBox="0 0 509.71 509.71" style="enable-background:new 0 0 512 512" xml:space="preserve" class=""><g><g xmlns="http://www.w3.org/2000/svg"><g><path d="m128.855 352.71v157h182v-157zm155 127h-30v-30h30zm0-58h-30v-30h30z" fill="#ffffff" data-original="#000000" style="" class=""></path><path d="m340.855 352.71h40v157h-40z" fill="#ffffff" data-original="#000000" style="" class=""></path></g><g><path d="m383.265 322.71h-256.82l10.82-38h235.18z" fill="#ffffff" data-original="#000000" style="" class=""></path></g><g><path d="m482.855 437.71v72h-72v-158c40.952.465 71.694 38.781 72 86z" fill="#ffffff" data-original="#000000" style="" class=""></path></g><g><path d="m98.855 351.71v158h-72v-72c.308-47.22 31.046-85.534 72-86z" fill="#ffffff" data-original="#000000" style="" class=""></path></g><g><g><path d="m349.065 199.04c-1.77 12.89-5.26 35.06-10.6 55.67h-167.81c-4.86-20.04-8.2-41.92-10.03-55.68 24.66 15.112 58.942 12.638 81.01-5.12 4.953-3.829 9.404-8.305 13.22-13.26 3.816 4.955 8.267 9.431 13.22 13.26 22.057 17.749 56.342 20.236 80.99 5.13z" fill="#ffffff" data-original="#000000" style="" class=""></path></g></g><g><path d="m239.655 140.71c-2.129 21.524-20.31 38.329-42.3 38.33-21.99 0-40.171-16.806-42.3-38.33z" fill="#ffffff" data-original="#000000" style="" class=""></path></g><path d="m354.655 140.71c-2.129 21.524-20.31 38.329-42.3 38.33-21.99 0-40.171-16.806-42.3-38.33z" fill="#ffffff" data-original="#000000" style="" class=""></path><g><path d="m410.855 80.71v30h-312v-30h52.78l22.62-80.71 80.6 22.15 80.6-22.15 22.62 80.71z" fill="#ffffff" data-original="#000000" style="" class=""></path></g></g></g></svg>